<?xml version="1.0" encoding="utf-8"?>
<!-- Generator: Adobe Illustrator 23.0.3, SVG Export Plug-In . SVG Version: 6.00 Build 0)  -->
<svg version="1.1" id="Layer_1" xmlns="http://www.w3.org/2000/svg" xmlns:xlink="http://www.w3.org/1999/xlink" x="0px" y="0px"
	 viewBox="0 0 2911.8 943.7" style="enable-background:new 0 0 2911.8 943.7;" xml:space="preserve">
<style type="text/css">
	.st0{fill:#1A2766;}
	.st1{fill:url(#SVGID_1_);}
	.st2{fill:url(#SVGID_2_);}
</style>
<g>
	<g>
		<g>
			<g>
				<g>
					<path class="st0" d="M266.2,413.1l0.1,179.8c0,14.5-3.5,25-10.5,31.4c-5.3,4.9-13.3,7.9-24,9.1c-10.7-1.2-18.7-4.2-24-9.1
						c-7-6.5-10.5-16.9-10.5-31.4V341.9v-89.2V146.4H88v106.3H0v89.2h88v250.3c0,87.3,44.2,131.7,132.5,133.3v0.2h4.8h13h0
						c91.5,0,137.3-44.5,137.3-133.4l-0.1-179.1H266.2z"/>
				</g>
				<g>
					<path class="st0" d="M321,389.2c30.2,0,54.6-24.4,54.6-54.6s-24.4-54.6-54.6-54.6c-30.2,0-54.6,24.4-54.6,54.6
						S290.9,389.2,321,389.2z"/>
				</g>
			</g>
		</g>
		<path class="st0" d="M410,425.7c16.4-30.2,39-53.6,68.1-70.2c29-16.6,62.2-24.9,99.6-24.9c48.2,0,88.1,12,119.6,36.1
			c31.6,24.1,52.7,57.9,63.5,101.4H654.9c-5.6-16.8-15.1-30-28.4-39.6c-13.3-9.6-29.8-14.4-49.5-14.4c-28.1,0-50.3,10.2-66.7,30.5
			c-16.4,20.3-24.6,49.2-24.6,86.7c0,37,8.2,65.6,24.6,85.9c16.4,20.3,38.6,30.5,66.7,30.5c39.7,0,65.7-17.8,77.9-53.3h105.9
			c-10.8,42.1-32,75.5-63.9,100.3c-31.8,24.8-71.6,37.2-119.3,37.2c-37.4,0-70.6-8.3-99.6-24.9c-29-16.6-51.7-40-68.1-70.2
			c-16.4-30.2-24.6-65.4-24.6-105.6C385.5,491,393.6,455.8,410,425.7z"/>
		<path class="st0" d="M1003.5,725.6L871.6,560v165.6h-98.2V206.4h98.2v295.4l130.5-164.9h127.7L958.6,532l172.6,193.6H1003.5z"/>
		<path class="st0" d="M1439.7,560.7h-284.2c2.3,28.1,12.2,50.1,29.5,66c17.3,15.9,38.6,23.9,63.8,23.9c36.5,0,62.4-15.7,77.9-47
			h105.9c-11.2,37.4-32.7,68.2-64.5,92.3c-31.8,24.1-70.9,36.1-117.2,36.1c-37.4,0-71-8.3-100.7-24.9
			c-29.7-16.6-52.9-40.1-69.5-70.5c-16.6-30.4-24.9-65.5-24.9-105.2c0-40.2,8.2-75.5,24.6-105.9c16.4-30.4,39.3-53.8,68.8-70.2
			c29.5-16.4,63.4-24.6,101.7-24.6c36.9,0,70,8,99.3,23.9c29.2,15.9,51.9,38.5,68.1,67.7c16.1,29.2,24.2,62.8,24.2,100.7
			C1442.6,536.9,1441.6,549.5,1439.7,560.7z M1340.8,494.8c-0.5-25.3-9.6-45.5-27.4-60.7c-17.8-15.2-39.5-22.8-65.3-22.8
			c-24.3,0-44.8,7.4-61.4,22.1c-16.6,14.7-26.8,35.2-30.5,61.4H1340.8z"/>
	</g>
	<linearGradient id="SVGID_1_" gradientUnits="userSpaceOnUse" x1="2153.8833" y1="531.2559" x2="2359.4609" y2="531.2559">
		<stop  offset="0" style="stop-color:#AE1B1E"/>
		<stop  offset="1" style="stop-color:#FC9F32"/>
	</linearGradient>
	<path class="st1" d="M2307.5,430.6c-15.9-9.1-33-13.7-51.2-13.7c-18.2,0-35.1,4.5-50.5,13.3c-15.4,8.9-28,21.9-37.5,38.9
		c-9.6,17.1-14.4,37.3-14.4,60.7c0,23.4,4.8,43.9,14.4,61.4c9.6,17.5,22.2,31,37.9,40.3c15.7,9.4,32.4,14,50.2,14
		c18.2,0,35.3-4.6,51.2-13.7c15.9-9.1,28.5-22.2,37.9-39.3c9.3-17.1,14-37.5,14-61.4c0-23.9-4.7-44.3-14-61.4
		C2336.1,452.8,2323.4,439.7,2307.5,430.6z"/>
	<linearGradient id="SVGID_2_" gradientUnits="userSpaceOnUse" x1="1467.2384" y1="471.8351" x2="2911.7737" y2="471.8351">
		<stop  offset="0" style="stop-color:#1A2766"/>
		<stop  offset="0.5168" style="stop-color:#AE1B1E"/>
		<stop  offset="1" style="stop-color:#FC9F32"/>
	</linearGradient>
	<path class="st2" d="M2586.6,476c0-179.6,145.6-325.2,325.2-325.2V0H1467.2v336.9h45.4v-96.1h98.9v96.1h87v80.7h-87v188
		c0,13.1,3.2,22.6,9.5,28.4c6.3,5.9,16.9,8.8,31.9,8.8h45.6v82.8h-61.7c-82.8,0-124.2-40.2-124.2-120.7V417.6h-45.4v526.1h1444.5
		V801.1C2732.2,801.1,2586.6,655.6,2586.6,476z M1815,725.6h-98.2V336.9h98.2V725.6z M1809.8,274.1c-11.5,11-25.9,16.5-43.2,16.5
		c-17.3,0-31.7-5.5-43.1-16.5c-11.5-11-17.2-24.7-17.2-41c0-16.4,5.7-30,17.2-41c11.5-11,25.8-16.5,43.1-16.5
		c17.3,0,31.7,5.5,43.2,16.5c11.5,11,17.2,24.7,17.2,41C1826.9,249.4,1821.2,263.1,1809.8,274.1z M2060.6,725.6h-61.7
		c-82.8,0-124.2-40.2-124.2-120.7V417.6h-46.3v-80.7h46.3v-96.1h98.9v96.1h87v80.7h-87v188c0,13.1,3.2,22.6,9.5,28.4
		c6.3,5.9,16.9,8.8,31.9,8.8h45.6V725.6z M2458.4,725.6h-98.9v-56.8c-12.6,18.2-30.1,33.3-52.3,45.3c-22.2,11.9-47.8,17.9-76.8,17.9
		c-32.7,0-62.6-8.4-89.5-25.3c-26.9-16.8-48.2-40.6-63.8-71.2c-15.7-30.6-23.5-65.8-23.5-105.6c0-39.3,7.8-74.1,23.5-104.5
		c15.7-30.4,36.9-53.8,63.8-70.2c26.9-16.4,56.9-24.6,90.2-24.6c29,0,54.4,5.9,76.1,17.5c21.8,11.7,39.2,26.4,52.3,44.2v-55.4h98.9
		V725.6z"/>
</g>
</svg>
