<svg width="150" height="49" viewBox="0 0 150 49" fill="none" xmlns="http://www.w3.org/2000/svg">
<path d="M13.7156 21.2674V30.5294C13.7156 31.2717 13.5219 31.8203 13.167 32.143C12.9088 32.4012 12.4892 32.5626 11.9406 32.6271C11.392 32.5626 10.9725 32.4012 10.7143 32.143C10.3593 31.8203 10.1657 31.2717 10.1657 30.5294V17.6207V13.0058V7.51953H4.55034V13.0058H0V17.5884H4.55034V30.4972C4.55034 34.983 6.84165 37.2743 11.3597 37.3711H11.6179H12.2633C16.975 37.3711 19.3309 35.0798 19.3309 30.4972V21.2674H13.7156Z" fill="white"/>
<path d="M16.5235 20.0411C18.0725 20.0411 19.3311 18.7825 19.3311 17.2334C19.3311 15.6844 18.0725 14.4258 16.5235 14.4258C14.9744 14.4258 13.7158 15.6844 13.7158 17.2334C13.7158 18.7825 14.9744 20.0411 16.5235 20.0411Z" fill="white"/>
<path d="M21.1383 21.9131C21.9773 20.3641 23.1391 19.17 24.6559 18.2987C26.1404 17.4596 27.8508 17.0078 29.7871 17.0078C32.2721 17.0078 34.3375 17.621 35.9511 18.8796C37.5647 20.1059 38.6619 21.8486 39.2106 24.1076H33.7566C33.4661 23.2363 32.9821 22.5586 32.3044 22.0745C31.6266 21.5904 30.7553 21.3323 29.7549 21.3323C28.3026 21.3323 27.1731 21.8486 26.334 22.9136C25.495 23.9463 25.0754 25.4631 25.0754 27.3671C25.0754 29.2712 25.495 30.7557 26.334 31.7884C27.1731 32.8211 28.3349 33.3697 29.7549 33.3697C31.788 33.3697 33.1434 32.4661 33.7566 30.6266H39.2106C38.6619 32.7888 37.5647 34.5315 35.9188 35.7901C34.2729 37.081 32.2398 37.6941 29.7871 37.6941C27.8508 37.6941 26.1404 37.2746 24.6559 36.4033C23.1714 35.5642 21.9773 34.3378 21.1383 32.7888C20.2992 31.2397 19.8797 29.4325 19.8797 27.3348C19.8474 25.3017 20.2669 23.4945 21.1383 21.9131Z" fill="white"/>
<path d="M51.6998 37.3706L44.8904 28.8508V37.3706H39.8237V10.6172H44.8904V25.8495L51.6353 17.362H58.2187L49.3762 27.3986L58.2833 37.3706H51.6998Z" fill="white"/>
<path d="M74.1607 28.8839H59.5092C59.6383 30.3361 60.1224 31.4656 61.026 32.2724C61.9296 33.0792 63.0269 33.4988 64.3177 33.4988C66.1895 33.4988 67.5449 32.692 68.3195 31.0784H73.7734C73.1925 33.0147 72.0953 34.596 70.4494 35.8224C68.8035 37.0487 66.8027 37.6941 64.4146 37.6941C62.4782 37.6941 60.7678 37.2746 59.2188 36.4033C57.702 35.5642 56.5079 34.3378 55.6366 32.7565C54.7652 31.1752 54.3457 29.368 54.3457 27.3348C54.3457 25.2694 54.7652 23.4299 55.6043 21.8809C56.4434 20.2996 57.6374 19.1055 59.1542 18.2664C60.671 17.4273 62.4137 17.0078 64.3823 17.0078C66.2863 17.0078 67.9967 17.4273 69.4812 18.2341C70.998 19.0409 72.1598 20.2027 72.9989 21.7195C73.838 23.2363 74.2575 24.9467 74.2575 26.9153C74.322 27.6576 74.2575 28.303 74.1607 28.8839ZM69.0617 25.4953C69.0294 24.2045 68.5776 23.1395 67.6417 22.365C66.7381 21.5904 65.6086 21.2032 64.2855 21.2032C63.0269 21.2032 61.9619 21.5904 61.1228 22.3327C60.2515 23.1072 59.7351 24.1399 59.5415 25.4953H69.0617Z" fill="white"/>
<path d="M118.89 22.1709C118.083 21.6868 117.18 21.4609 116.244 21.4609C115.308 21.4609 114.437 21.6868 113.63 22.1386C112.823 22.5905 112.178 23.2682 111.693 24.1395C111.209 25.0109 110.951 26.0758 110.951 27.2699C110.951 28.4639 111.209 29.5289 111.693 30.4325C112.178 31.3362 112.823 32.0139 113.63 32.4979C114.437 32.982 115.308 33.2079 116.212 33.2079C117.147 33.2079 118.019 32.982 118.858 32.4979C119.665 32.0139 120.342 31.3684 120.794 30.4648C121.278 29.5935 121.504 28.5285 121.504 27.3022C121.504 26.0758 121.278 25.0109 120.794 24.1395C120.342 23.3327 119.697 22.655 118.89 22.1709Z" fill="white"/>
<path d="M133.251 24.5267C133.251 15.2646 140.738 7.77754 150 7.77754V0H75.5811V17.3623H77.9046V12.3924H83.0036V17.33H87.4894V21.4931H83.0036V31.1747C83.0036 31.8524 83.165 32.3365 83.4877 32.6269C83.8104 32.9174 84.359 33.0787 85.1335 33.0787H87.4894V37.3386H84.2945C80.0346 37.3386 77.9046 35.2732 77.9046 31.1102V21.5254H75.5811V48.6338H150V41.2758C140.738 41.2758 133.251 33.7565 133.251 24.5267ZM93.492 37.3709H88.4253V17.3623H93.492V37.3709ZM93.2338 14.1351C92.6529 14.716 91.9107 14.9742 91.007 14.9742C90.1034 14.9742 89.3612 14.6837 88.7803 14.1351C88.1994 13.5542 87.9089 12.8765 87.9089 12.0052C87.9089 11.1661 88.1994 10.4561 88.7803 9.87522C89.3612 9.29432 90.1034 9.03614 91.007 9.03614C91.9107 9.03614 92.6529 9.32659 93.2338 9.87522C93.8147 10.4561 94.1052 11.1338 94.1052 12.0052C94.1052 12.8442 93.8147 13.5542 93.2338 14.1351ZM106.143 37.3709H102.948C98.6878 37.3709 96.5578 35.3055 96.5578 31.1424V21.5254H94.1697V17.3623H96.5578V12.3924H101.657V17.33H106.143V21.4931H101.657V31.1747C101.657 31.8524 101.818 32.3365 102.141 32.6269C102.464 32.9174 103.012 33.0787 103.787 33.0787H106.143V37.3709ZM126.635 37.3709H121.536V34.4342C120.891 35.3701 119.987 36.1446 118.858 36.7577C117.728 37.3709 116.405 37.6936 114.888 37.6936C113.21 37.6936 111.661 37.2741 110.273 36.4028C108.886 35.5314 107.788 34.3051 106.982 32.7238C106.175 31.1424 105.755 29.3352 105.755 27.2698C105.755 25.2367 106.143 23.4617 106.982 21.8804C107.788 20.2991 108.886 19.105 110.273 18.2659C111.661 17.4268 113.21 17.0073 114.921 17.0073C116.405 17.0073 117.728 17.2978 118.858 17.9109C119.987 18.5241 120.891 19.2664 121.536 20.2022V17.3623H126.635V37.3709Z" fill="white"/>
</svg>
